<mxfile host="Electron" modified="2024-07-04T10:00:37.770Z" agent="Mozilla/5.0 (Windows NT 10.0; Win64; x64) AppleWebKit/537.36 (KHTML, like Gecko) draw.io/24.2.5 Chrome/120.0.6099.109 Electron/28.1.0 Safari/537.36" etag="1n4xRGNEJsbpkIiJed6j" version="24.2.5" type="device">
  <diagram name="Page-1" id="umd7zoLf2SPb1oHB0z63">
    <mxGraphModel dx="872" dy="827" grid="1" gridSize="10" guides="1" tooltips="1" connect="1" arrows="1" fold="1" page="0" pageScale="1" pageWidth="850" pageHeight="1100" math="0" shadow="0">
      <root>
        <mxCell id="0" />
        <mxCell id="1" parent="0" />
        <mxCell id="NmENmXYsC_xTgSrwj12Q-2" value="" style="shape=image;verticalLabelPosition=bottom;labelBackgroundColor=default;verticalAlign=top;aspect=fixed;imageAspect=0;image=data:image/png,iVBORw0KGgoAAAANSUhEUgAAAUoAAACZCAMAAAB+KoMCAAABOFBMVEX///8AAADxeVLl9fvR7PXvcVDwdVG30OzQ7vjxd081NTXj4+NmZmbo6Oj6+vooKCj19fVzc3Pc5/UhISHsaFLZ7/fu7u7m5ubY7/dCQkLDw8MDCAjZ2dnOzs7d3d281e5PT0+CgoLsYkvr8vnx+fz4rIZHR0egoKCxsbGNjY399vTI3vEYGBh6enrS0tKYmJhbW1v749v61Mmurq4TExM5OTn0noLayMPtblL86ubtcl363dfygVzg6/fG3PHS5OrrjG3wakXgr6HvgW/xlIT3yMD1s6j4zMTtXUT2sJr4wbD0oJLzh2T1oYb4wrLnj3Xfuq71nHX0kmrjpZLftqvjno7ki37wiXjufGrfpJzjkobmg3W9pp/2qZF5TT+IUT6EPSPBYUI7IRedUDdRKx4hFBBbMSLEw9Fs/bI0AAARlUlEQVR4nO2deV8aSRrHgQhyaINcRkCQhgiCoIAX0iJqvNFknMxoZobdzc7s7vt/B1tV3V31VHd1gxMi5pP6/ZFoV0G6vzxXXcTjkZKSkpKSkpKSkpKSkpKSkpKSkpKSkpKSkvqBpJRLpaN4v1Ao9ONHpVJZmfUNfZ9SSvF6vzBPZP7Vr8dLEufzhDhifIV6PZ5KHb15k0KK1+sFdLEgaT5DpXh/fr5fT72xKXVU7xOas77F70OlOuIYF3A0cdaRbdYlzLHCIEX2yNPsS5jjVI6j+DgOpG6aCGZ51rf7inVUGG+RwDILR7O+4dcqBZnkpCCxUJKXhilUqT9ffwZIrP58X0ZMu5BzxykjZGxl3Y1Tqbe60E92lnPz89LJrTrinBsX4QjjnEVvbTRT6AOY9a2/MsXn+5AQtkorRxOnBaZkySsOw2S5/AZZ31sHlDbb7EuWQJAkMkjFGaPIMiVLpiPg3SRKjiGJxBlmQeYeQ6UCJYnLxLI12wSx3GCi3CNrIqxygeZuQtJCce44n2vmcsdzVp6AJUr/slZHqs8fAZJvOJDH+6cfhr5QwB/QPpzuH/MwQcREBYCcxESBss5IKikIMn86CJ2EQiGfL+D3n5z4B6d5DiZg2ZfhErl3n5Esg9QdPD7VThBFXYgl0ol2euzAsiBdvD6fEhZBwf1BiIKkLP0ng30xS1RPzfpRZqyS6d48yeDcRx8ECVgGPs4FRSz7P3oW7xcMEujnFCB5ik2SM0uf39SpMI+nfvDMUzJngxQudwcJSd9wqIVsZokM8xT6ODXL+o+deeoFlnIASd27f3r37t0wJDDLwL7IxY9+aLOkkZIPlDlsjKEhIvnuJ3u0RNJygGWKmeUPHC3rxjinzJfmd9gUQw8Y5TthtDz5BYZLEC1n/UAzk1JgRgnLIN2pbVbJUPIuTs3yB64tj4who8UoP+gosVn+pAlqS2yWH0RmGX/GbFtsMbe6ml8cH12VdC5TzcSsl9PNaqXSySyPf4NYLtNBPfO2t5imzKTDG2XTJBfSNL64DACzbArMMjVhma5EOkvr0c2dnUR0rZFZdOuZq2zvJrxe73oGXs1XFsKb6Ko3G13bWHVjtFxdWsGv93oT641MeqLb+xsy/Zs3yuDPDJ+4Sidm+bOoIOpP4uGxzIIXKlFcderZ2WbdKEvF8nrvesUJUbO4yfWMbuSfj2kSleZp0gEjxuOBBaAQpX8APdw0y0ly+Oqa16psIyLqmeF6rhvGl1uwvd672xH5+WJxx9YzsfVNLDNO/bvM+fdEKAM5QW2ZGhssY0U7CGwuVVvPdMPShxiUUrHjwVpYtr1BJizsudKcCjwmJd6vFwoi/953JMmh9O+LPHy+0HfdZLC8LXw8pC1Lz7zNeDFKh09CRKiSdeiZsH9sX6UjvIuXhko4S/nJGSWohvwnnyBK08PJ/lbnpJoXGwrRBvey3K6NFXLwtMC5TUX5iLvh3NM7XZZxiBLkby7ruKI8FaGs47d1RLloD5NAFdAzsiJ8/qLb68MwpVTcemYznimKoIzbQyVGGfAfJA+QAiKUBwfJJGq1pPC3k6CMudgU/4CKLQ7sdsbx8XrXWEbJOHm3rug0EzlBmTJQwlA595uaTKpImJgVph9zTKrkj1+CgmAZd0O5BZ9mvdipVitF6PHhtLDn2kanSirCJuSzslHNZKqVBXhtw3x9mnvbYieTyVSWEuDa9hTrdYaSyzrB3K+I4+HZ+/ePTxjZAUfyAEM+fDp7OsSkP8O1CZrCnVHmwLNsm8OXdAcERTP15EA1uNA0nxqa6ppZbSv5JQYza4ZLECjDHbPn8ha4gSmGS4ySJnCadYLNpyv16aJX83hq3cv3CCZgGThAv78/79Vq3d75Y1K9+hWwNFAeuaBkxc1OBXRZXqLXTb9jV2C2rQLzg0aViTLu+pUIY7YEi6Qmi9Ur0ysvhSiDuUM1eVujnS6fIEtE8qnN2pBlApapsSgjtCDc5KO+whjrZsmMMgorHGaUFe71njwzbL1/kf7e4O8lzd5jembJoTTGOsHjX6/UC/iPd8/UpJ+RfN8Fba0z9eqzNYW7OPiG41OwdLSrcD2zsL7J0dcXrW/NgihpYpFywRoSF2llsD0pqbESovyoqrd8t95hMqnnnkBSPetybV1kwqvBSVHGqHNt2Npy1GAxu9i6kBlNRet23+TbMuZvCXuiZm25cYgmlQBl8PhJPdO9O52pGjHm3nRxlHIM786bU17nSfW3ia2S4ooKohS1Q+zhedPGwrCnQk1X4Jpp6uI5+G72Dw28TWdCUmMliJXBfVW9J40RZEFRPaDVztQDwyjf64iqKJItkIesPapJcyQ+FiVNGjb39AAPXVKcelJaYVHCoPSqMNOLDI++u4Dz35MI5eerQ92FUQbNmrd8oRIP9yfVS/J7PoHajPxwr17t8yid004R+rBVMTOE4SqbYuGyU8TMRQuid18FgGIm9BXRjdDsvj2tNT1RXfmb+mg+WDZrfqaXSZJ4kH/rmKuoLWsE7V7y6vOkKM1QKfJvj8d0u91FBp2PZjTrWOc9iBZN0EvIfhPsZ7vop5aYVpVuH+0Ej383k842RpnQZ7dbep1+oD7pYRT5ImpskJ+7h1e/BCcc7ZhZdUX4BCa+6DKrKsPcvBm1O2GMo0l7AdivKJQA959WZWkfgwOUmR326VtRkiowqhsMyuG/8Sidx+BmHb3ujjICUHIrFa8cpT4zpBgo535V3xutzWLDzJM908EPjdJd6TQ2jElvu1X2HVHSrCFEaeJzRkkdXJguls36AKFMR9nPdlEHj07VwftcNRT85erM3vFcL9L9yWTL1tZOXhlTbebMUMERpRkNd0RrDwqNpI4oJ0w7CyDt7IpuJG++z9TSDskP/Cx68ONVsmfreKtncFQM3dvaLmgGh7WQeOqXTpBVBI00rTqjTFNrsi89gPpgAZaOomKh42rdf0dKvdCP07yje3guqV5Y+7UOjRI9qT7WLG2o5jw8tmSdQsHhOC61mzUBafp8zig9brX1MhsqesDYpyF4bhoqpzg3VPaUjbyjGBuGkIcfWs3y1hyE++1meaGqn3n/rs+XFAe/WQw7PwO1ODeU1KzDdrNk43uMkn5qO/YVMVqhT3X216P0+7yHNw+t4+x7OmWJPNzCuZ1Un3Kcf78puOxlozNnUdsghLqnG0o2s7Rg/UfowFpHSTMLnFfXlYvCjlOUxcPngp+u1EfIEpFMmjPpfm6OTZ9l2+fz95Hb7gz2vCsWgwDrDC4omYdbVtTghKVOiE3CW6aG8mzJaKrLO/jsU9wyZflZVZ/OzZjYuwUkCcvkhQm6e5FUVXOlDPi3y7/G5l3D8DlicG3QDSVYr1kCZYDSgSvjBOUiY7sNXSDDJjbXpr2DyDwdQc1y7hQROrtot7q989tDFZIkBZH6dHtJ2p5UNfnJnBZ6Y/p3we0fy8AnNjf6pKvr4LIrSjC57g1XjI1b6Qy/oqb7LbDzxEZe7xlrNsA60JSNknk4HYcHg/tn+hoZ+cOyToaXJGjb7/tBi1GO2cimLMFnXi9WqtVKw7Iw7ooyAhzZm1jaqlY7Resir44yBleJswtbnWpng1s4Fg7Pv0pltsGyPGfO/+rLiqIFR3PJEQtsZWNG6b5jKOKyoWASlKxmcpaRTVY3XXuFhXuUvk7ALA2WeKNLAO9osXPULZPsdgmE2B7q1GRGiR8w6vqAY1Hyi7puKN0XwqP2IunrRc1SYRPALrszmEIaXSKjRjl+G9uYlf6xKJXipCjdLHjHaRPi18lmlm472SDK4bGF5ETHyVZtW4GehdKjjLNLVi5WEw5ddr8NSXbEsWyizD0PJdiIPsn5iGXxZhe6nLPI1st3hbNgGXGQADNDppriHUrb3yBO6mIHb40cntMmQjngs/fEB6CUjH1nlbe4aqCAazsOWVa0AXWbVoxwEBOr2A0zXP12Z4uU/nwKsgwew1NP/NE82PCBJ/mMA+HpKm+ZO41VsxIkaxCxbfazULkib5kLGQVO/QJFtvjPba3itvH9q8VOMessIUrtWoMb0/cAyr0gJJmazL0NKflOYy0cTSSi4bVGVXe46noiuqTTSzcS2Z1ttyybzhTXwonNzc3oylInovCz6HzP1Y1t1HNnM7G7sNX8pockPJyL4yTO7UVvtYfGmXBkn/dtgHIU5I/dPvdLXZR0JJ+PpJkpx/JsxiefGfvUymKuudqMmIMml5lzJZ1HPfPf7HQEVBx8gxgaOwKUoT88XWSYWNqo5fkDtPwcBCTr8/UXOd64nHPIGXnThQVTlC8pFC6PKJW35gkoAuwf6NZbN6O90U0LPcg/OZTsa0hQoHyJY2Tpjd1sVHyYgk5DiuboX1LlPvg+trd3wMH/tcQcTWn8C6A8hV9Q8CIH8oxtaLuizEET2dSnKZ6rUgGwHAFgX7xLZoxJF71fQMsnSPJFTtya0z2CNdlVuiFJtPDzsoIsr2EB9G/vSicfU2L5zor337Au+vjSJKnlZW2jlRidaLNNsM9AJfbtlfCIROhPXOGtrJFzgn/ChjbNOC9Ekm1Vtbk4mzye2va0r1GZfqfqKVeW/2UM6rLev+Dl0L5J8sW+V5UBW+NWNBTWINzl9vJSEBXi5B8hytCX/+D9Vtmsd+dLyIYy9ZLf9ptnY5xolWVDeOZx1vnblPmtyR/5wSJiifWfL9xVX56Eyfn4CwYnOCu0XSUGqKwWwTjbtsA4O5X62DBtE5Z//vev//7JXwppy/jbvF/2S5Nj3DJOdnd7e52br7DnoxkKG2Z930KSzGKErCgjdWSSL/z9Djn3WXjhzsvZqVSf/58VpUChYWEW3+OdEZ9g1lV8BYUQr9L/NIdlHYhy0J/JfxVTdV7+Kn7raZ+/oZ4vEHCHidq17vg3+hZyWtHIvpbkzenWHyByARkI+G173l5IkSURyZWZj71F6h0GfI4saZP/cEZmiQKm7YRzuPIKndvjqb1XA4bl2Wmyy3711rrd8sWkZJZAKt9c67yecpJJ6Z4/GvuEAkw+we/+ZPLxvDuznJle7TRWEpvhha1M5NUlbg/eVPWIz82rfp8VnpWrvhUrmTy7vW93Z2WdMaTXhxFJ6V3cPj4dJhEffUViKKTp04YE5eAJ9Tx8ery9aM/M0V+zlFq3127X9AnLAR8gzd80Ajp03m23e93aq7SKV6QbghKs1EJpewRle/zbSBkotZEY5VBfr5AoJ9I9QXlNwGkMYmhI/iDur0mUE+mSfD3tDQY3gCjxL+g6btXsR8ukBGoTlPeY3t4QohyG0PVLn0Q5sXoY1gPe1RK6AxuIQnsPGCW5PpzZsPH7UouYIEF2DXe93A0wyh5xc1lMTqSWhpB96NlQjvYwStI6kCgnUhfHxD1im/ccyhFGSVoHsjafSATWiKC8hCivUR0UeujiiLk363v8TlTDKK+7ZFCzZ0U5qOGIeTfre/xORGARlL4eh/IGW2UNR8zRrO/xO5GCUd4QlC2I8uacWOUdBj3re/xehO3uvquhSrxLUGp7Oso2STgjiXJyYbtrM5Sh4TlEiSPmzaxv8TuRgvn1CMoaQbnXJf9rzE0Pl+544kha5USq9e7wILuG8KFBDUF5jRMRQtlCdPeUNpk3aski3V219vUDORBx48EoB9jXUdz0jMhfqOBEKJU73ME3uJZLEU6qte5HeH5S07SHmxoeiRsofT0yG6yjfKh5utdD1Ad1fBhdzm7R8TWr1u31WkR4EREnHBQS78hY0dMjKIm7X+NGvV+r15IoXaV02/cjfPAJMRzpcxc47yA/b2PXHo7ue3KObbyQl1/vDX04GGp3LY9noA9t9AGQx9MeaLhNe9i7vpSJx1149dYQsrwaWZXA33qFi0ntEnlzi7ZLlJOrSyYz9LlJMkvpu5NJ+/mq9VC4xP+hdehBX8a51E+NDqVjP0coXt5poZMTRFIb3JjgWtcPKEziq8PReUsm7olUo/Gyx9U6tRZrkJYpJSUlJSUlJSUlJSUlJSUlJSUlJTUL/R9Wligc8Bh1DQAAAABJRU5ErkJggg==;" vertex="1" parent="1">
          <mxGeometry x="-130" y="240" width="330" height="153" as="geometry" />
        </mxCell>
        <mxCell id="NmENmXYsC_xTgSrwj12Q-8" style="rounded=0;orthogonalLoop=1;jettySize=auto;html=1;exitX=0.5;exitY=1;exitDx=0;exitDy=0;" edge="1" parent="1" source="NmENmXYsC_xTgSrwj12Q-3" target="NmENmXYsC_xTgSrwj12Q-4">
          <mxGeometry relative="1" as="geometry" />
        </mxCell>
        <mxCell id="NmENmXYsC_xTgSrwj12Q-3" value="Antragstellung" style="ellipse;whiteSpace=wrap;html=1;" vertex="1" parent="1">
          <mxGeometry x="-290" y="140" width="120" height="80" as="geometry" />
        </mxCell>
        <mxCell id="NmENmXYsC_xTgSrwj12Q-9" style="rounded=0;orthogonalLoop=1;jettySize=auto;html=1;exitX=0.5;exitY=1;exitDx=0;exitDy=0;entryX=0.5;entryY=0;entryDx=0;entryDy=0;" edge="1" parent="1" source="NmENmXYsC_xTgSrwj12Q-4" target="NmENmXYsC_xTgSrwj12Q-5">
          <mxGeometry relative="1" as="geometry" />
        </mxCell>
        <mxCell id="NmENmXYsC_xTgSrwj12Q-4" value="PrÃ¼fung" style="ellipse;whiteSpace=wrap;html=1;" vertex="1" parent="1">
          <mxGeometry x="-290" y="290" width="120" height="80" as="geometry" />
        </mxCell>
        <mxCell id="NmENmXYsC_xTgSrwj12Q-10" style="rounded=0;orthogonalLoop=1;jettySize=auto;html=1;exitX=1;exitY=1;exitDx=0;exitDy=0;" edge="1" parent="1" source="NmENmXYsC_xTgSrwj12Q-5" target="NmENmXYsC_xTgSrwj12Q-6">
          <mxGeometry relative="1" as="geometry" />
        </mxCell>
        <mxCell id="NmENmXYsC_xTgSrwj12Q-5" value="Freigabe" style="ellipse;whiteSpace=wrap;html=1;" vertex="1" parent="1">
          <mxGeometry x="-270" y="430" width="120" height="80" as="geometry" />
        </mxCell>
        <mxCell id="NmENmXYsC_xTgSrwj12Q-11" style="rounded=0;orthogonalLoop=1;jettySize=auto;html=1;exitX=1;exitY=0.5;exitDx=0;exitDy=0;entryX=0;entryY=0.5;entryDx=0;entryDy=0;" edge="1" parent="1" source="NmENmXYsC_xTgSrwj12Q-6" target="NmENmXYsC_xTgSrwj12Q-7">
          <mxGeometry relative="1" as="geometry" />
        </mxCell>
        <mxCell id="NmENmXYsC_xTgSrwj12Q-6" value="Zahlungsabwicklung" style="ellipse;whiteSpace=wrap;html=1;" vertex="1" parent="1">
          <mxGeometry x="-80" y="490" width="120" height="80" as="geometry" />
        </mxCell>
        <mxCell id="NmENmXYsC_xTgSrwj12Q-7" value="Platzierung" style="ellipse;whiteSpace=wrap;html=1;" vertex="1" parent="1">
          <mxGeometry x="120" y="490" width="120" height="80" as="geometry" />
        </mxCell>
      </root>
    </mxGraphModel>
  </diagram>
</mxfile>
